# Blender 4.4.3
# www.blender.org
mtllib city_base.mtl
o Circle.001
v 11.622988 0.048086 -72.727638
v -3.750108 0.048086 -71.213516
v -18.532427 0.048086 -66.729355
v -32.155884 0.048086 -59.447464
v -44.096947 0.048086 -49.647686
v -53.896729 0.048086 -37.706619
v -61.178619 0.048086 -24.083160
v -65.662781 0.048086 -9.300848
v -67.176903 0.048086 6.072245
v -65.662788 0.048086 21.445335
v -61.178619 0.048086 36.227650
v -53.896729 0.048086 49.851120
v -44.096947 0.048086 61.792187
v -32.155884 0.048086 71.591965
v -18.532412 0.048086 78.873863
v -3.750090 0.048086 83.358025
v 11.623013 0.048086 84.872139
v 26.996117 0.048086 83.358017
v 41.778435 0.048086 78.873840
v 55.401901 0.048086 71.591942
v 67.342957 0.048086 61.792152
v 77.142731 0.048086 49.851078
v 84.424614 0.048086 36.227604
v 88.908768 0.048086 21.445278
v 90.422874 0.048086 6.072174
v 88.908737 0.048086 -9.300926
v 84.424553 0.048086 -24.083242
v 77.142647 0.048086 -37.706703
v 67.342850 0.048086 -49.647755
v 55.401772 0.048086 -59.447525
v 41.778294 0.048086 -66.729401
v 26.995964 0.048086 -71.213539
v -3.750108 -1.974236 -71.213516
v 11.622988 -1.974236 -72.727638
v -18.532427 -1.974236 -66.729355
v -32.155884 -1.974236 -59.447464
v -44.096947 -1.974236 -49.647686
v -53.896729 -1.974236 -37.706619
v -61.178619 -1.974236 -24.083160
v -65.662781 -1.974236 -9.300848
v -67.176903 -1.974236 6.072245
v -65.662788 -1.974236 21.445335
v -61.178619 -1.974236 36.227650
v -53.896729 -1.974236 49.851120
v -44.096947 -1.974236 61.792187
v -32.155884 -1.974236 71.591965
v -18.532412 -1.974236 78.873863
v -3.750090 -1.974236 83.358025
v 11.623013 -1.974236 84.872139
v 26.996117 -1.974236 83.358017
v 41.778435 -1.974236 78.873840
v 55.401901 -1.974236 71.591942
v 67.342957 -1.974236 61.792152
v 77.142731 -1.974236 49.851078
v 84.424614 -1.974236 36.227604
v 88.908768 -1.974236 21.445278
v 90.422874 -1.974236 6.072174
v 88.908737 -1.974236 -9.300926
v 84.424553 -1.974236 -24.083242
v 77.142647 -1.974236 -37.706703
v 67.342850 -1.974236 -49.647755
v 55.401772 -1.974236 -59.447525
v 41.778294 -1.974236 -66.729401
v 26.995964 -1.974236 -71.213539
vn -0.0000 1.0000 -0.0000
vn -0.0000 -1.0000 -0.0000
vn 0.9952 -0.0000 0.0980
vn -0.8819 -0.0000 0.4714
vn 0.9952 -0.0000 -0.0980
vn -0.7730 -0.0000 0.6344
vn 0.9569 -0.0000 -0.2903
vn -0.6344 -0.0000 0.7730
vn 0.8819 -0.0000 -0.4714
vn -0.4714 -0.0000 0.8819
vn -0.0980 -0.0000 -0.9952
vn 0.7730 -0.0000 -0.6344
vn -0.2903 -0.0000 0.9569
vn -0.2903 -0.0000 -0.9569
vn 0.6344 -0.0000 -0.7730
vn -0.0980 -0.0000 0.9952
vn -0.4714 -0.0000 -0.8819
vn 0.4714 -0.0000 -0.8819
vn 0.0980 -0.0000 0.9952
vn -0.6344 -0.0000 -0.7730
vn 0.2903 -0.0000 -0.9569
vn 0.2903 -0.0000 0.9569
vn -0.7730 -0.0000 -0.6344
vn 0.0980 -0.0000 -0.9952
vn 0.4714 -0.0000 0.8819
vn -0.8819 -0.0000 -0.4714
vn 0.6344 -0.0000 0.7730
vn -0.9569 -0.0000 -0.2903
vn 0.7730 -0.0000 0.6344
vn -0.9952 -0.0000 -0.0980
vn 0.8819 -0.0000 0.4714
vn -0.9952 -0.0000 0.0980
vn 0.9569 -0.0000 0.2903
vn -0.9569 -0.0000 0.2903
vt 0.500000 1.000000
vt 0.402456 0.990393
vt 0.308659 0.961940
vt 0.222215 0.915735
vt 0.146447 0.853554
vt 0.084266 0.777786
vt 0.038060 0.691342
vt 0.009607 0.597546
vt 0.000000 0.500000
vt 0.009607 0.402455
vt 0.038060 0.308659
vt 0.084265 0.222215
vt 0.146446 0.146447
vt 0.222215 0.084265
vt 0.308658 0.038060
vt 0.402455 0.009607
vt 0.500000 0.000000
vt 0.597545 0.009607
vt 0.691342 0.038060
vt 0.777785 0.084265
vt 0.853553 0.146447
vt 0.915735 0.222215
vt 0.961940 0.308658
vt 0.990393 0.402455
vt 1.000000 0.500000
vt 0.990393 0.597545
vt 0.961940 0.691342
vt 0.915735 0.777785
vt 0.853553 0.853553
vt 0.777785 0.915735
vt 0.691342 0.961940
vt 0.597545 0.990393
vt 0.000000 0.000000
s 0
usemtl Material
f 33/33/2 34/33/2 64/33/2 63/33/2 62/33/2 61/33/2 60/33/2 59/33/2 58/33/2 57/33/2 56/33/2 55/33/2 54/33/2 53/33/2 52/33/2 51/33/2 50/33/2 49/33/2 48/33/2 47/33/2 46/33/2 45/33/2 44/33/2 43/33/2 42/33/2 41/33/2 40/33/2 39/33/2 38/33/2 37/33/2 36/33/2 35/33/2
f 24/33/3 56/33/3 57/33/3 25/33/3
f 11/33/4 43/33/4 44/33/4 12/33/4
f 25/33/5 57/33/5 58/33/5 26/33/5
f 12/33/6 44/33/6 45/33/6 13/33/6
f 26/33/7 58/33/7 59/33/7 27/33/7
f 13/33/8 45/33/8 46/33/8 14/33/8
f 27/33/9 59/33/9 60/33/9 28/33/9
f 14/33/10 46/33/10 47/33/10 15/33/10
f 1/33/11 34/33/11 33/33/11 2/33/11
f 28/33/12 60/33/12 61/33/12 29/33/12
f 15/33/13 47/33/13 48/33/13 16/33/13
f 2/33/14 33/33/14 35/33/14 3/33/14
f 29/33/15 61/33/15 62/33/15 30/33/15
f 16/33/16 48/33/16 49/33/16 17/33/16
f 3/33/17 35/33/17 36/33/17 4/33/17
f 30/33/18 62/33/18 63/33/18 31/33/18
f 17/33/19 49/33/19 50/33/19 18/33/19
f 4/33/20 36/33/20 37/33/20 5/33/20
f 31/33/21 63/33/21 64/33/21 32/33/21
f 18/33/22 50/33/22 51/33/22 19/33/22
f 5/33/23 37/33/23 38/33/23 6/33/23
f 32/33/24 64/33/24 34/33/24 1/33/24
f 19/33/25 51/33/25 52/33/25 20/33/25
f 6/33/26 38/33/26 39/33/26 7/33/26
f 20/33/27 52/33/27 53/33/27 21/33/27
f 7/33/28 39/33/28 40/33/28 8/33/28
f 21/33/29 53/33/29 54/33/29 22/33/29
f 8/33/30 40/33/30 41/33/30 9/33/30
f 22/33/31 54/33/31 55/33/31 23/33/31
f 9/33/32 41/33/32 42/33/32 10/33/32
f 23/33/33 55/33/33 56/33/33 24/33/33
f 10/33/34 42/33/34 43/33/34 11/33/34
usemtl Material.001
f 2/1/1 3/2/1 4/3/1 5/4/1 6/5/1 7/6/1 8/7/1 9/8/1 10/9/1 11/10/1 12/11/1 13/12/1 14/13/1 15/14/1 16/15/1 17/16/1 18/17/1 19/18/1 20/19/1 21/20/1 22/21/1 23/22/1 24/23/1 25/24/1 26/25/1 27/26/1 28/27/1 29/28/1 30/29/1 31/30/1 32/31/1 1/32/1
